<?xml version="1.0" encoding="UTF-8"?>
<svg width="12px" height="14px" viewBox="0 0 12 14" version="1.1" xmlns="http://www.w3.org/2000/svg" xmlns:xlink="http://www.w3.org/1999/xlink">
    <title>accountSettings</title>
    <g id="design" stroke="none" stroke-width="1" fill="none" fill-rule="evenodd">
        <g id="accountSettings" transform="translate(0.028809, 0.850586)" fill="currentColor" fill-rule="nonzero">
            <path d="M5.97460938,6.33691406 C7.6015625,6.33691406 8.92773438,4.88769531 8.92773438,3.12402344 C8.92773438,1.37402344 7.60839844,0 5.97460938,0 C4.35449219,0 3.02148438,1.40136719 3.02148438,3.13769531 C3.02832031,4.89453125 4.34765625,6.33691406 5.97460938,6.33691406 Z M5.97460938,5.3046875 C4.9765625,5.3046875 4.12207031,4.34765625 4.12207031,3.13769531 C4.12207031,1.94824219 4.96289062,1.03222656 5.97460938,1.03222656 C6.99316406,1.03222656 7.82714844,1.93457031 7.82714844,3.12402344 C7.82714844,4.33398438 6.97949219,5.3046875 5.97460938,5.3046875 Z M1.67480469,12.6601562 L10.2675781,12.6601562 C11.4023438,12.6601562 11.9423828,12.3183594 11.9423828,11.5664062 C11.9423828,9.77539062 9.6796875,7.18457031 5.97460938,7.18457031 C2.26269531,7.18457031 0,9.77539062 0,11.5664062 C0,12.3183594 0.540039062,12.6601562 1.67480469,12.6601562 Z M1.35351562,11.6279297 C1.17578125,11.6279297 1.10058594,11.5800781 1.10058594,11.4365234 C1.10058594,10.3154297 2.83691406,8.21679688 5.97460938,8.21679688 C9.10546875,8.21679688 10.8417969,10.3154297 10.8417969,11.4365234 C10.8417969,11.5800781 10.7734375,11.6279297 10.5957031,11.6279297 L1.35351562,11.6279297 Z" id="􀉩"></path>
        </g>
    </g>
</svg>
