<?xml version="1.0" encoding="UTF-8"?>
<svg width="19px" height="17px" viewBox="0 0 19 17" version="1.1" xmlns="http://www.w3.org/2000/svg" xmlns:xlink="http://www.w3.org/1999/xlink">
    <title>chat</title>
    <g id="design" stroke="none" stroke-width="1" fill="none" fill-rule="evenodd">
        <path d="M5.796875,16.9453125 C6.1796875,16.9453125 6.4453125,16.7421875 6.921875,16.3203125 L9.6171875,13.921875 L14.6328125,13.921875 C16.9609375,13.921875 18.2109375,12.6328125 18.2109375,10.34375 L18.2109375,4.359375 C18.2109375,2.0703125 16.9609375,0.78125 14.6328125,0.78125 L4.5703125,0.78125 C2.2421875,0.78125 0.9921875,2.0625 0.9921875,4.359375 L0.9921875,10.34375 C0.9921875,12.640625 2.2421875,13.921875 4.5703125,13.921875 L4.9453125,13.921875 L4.9453125,15.953125 C4.9453125,16.5546875 5.25,16.9453125 5.796875,16.9453125 Z M6.1171875,15.515625 L6.1171875,13.25 C6.1171875,12.828125 5.953125,12.6640625 5.53125,12.6640625 L4.5703125,12.6640625 C2.9921875,12.6640625 2.25,11.859375 2.25,10.3359375 L2.25,4.359375 C2.25,2.8359375 2.9921875,2.0390625 4.5703125,2.0390625 L14.6328125,2.0390625 C16.203125,2.0390625 16.953125,2.8359375 16.953125,4.359375 L16.953125,10.3359375 C16.953125,11.859375 16.203125,12.6640625 14.6328125,12.6640625 L9.5703125,12.6640625 C9.1328125,12.6640625 8.9140625,12.7265625 8.6171875,13.03125 L6.1171875,15.515625 Z M13.53125,5.1953125 C13.78125,5.1953125 13.9765625,5 13.9765625,4.7421875 C13.9765625,4.5 13.78125,4.296875 13.53125,4.296875 L5.578125,4.296875 C5.328125,4.296875 5.125,4.5 5.125,4.7421875 C5.125,5 5.328125,5.1953125 5.578125,5.1953125 L13.53125,5.1953125 Z M13.53125,7.7421875 C13.78125,7.7421875 13.9765625,7.5390625 13.9765625,7.28125 C13.9765625,7.0390625 13.78125,6.8359375 13.53125,6.8359375 L5.578125,6.8359375 C5.328125,6.8359375 5.125,7.0390625 5.125,7.28125 C5.125,7.5390625 5.328125,7.7421875 5.578125,7.7421875 L13.53125,7.7421875 Z M10.75,10.28125 C11,10.28125 11.1953125,10.0859375 11.1953125,9.8359375 C11.1953125,9.578125 11,9.375 10.75,9.375 L5.578125,9.375 C5.328125,9.375 5.125,9.578125 5.125,9.8359375 C5.125,10.0859375 5.328125,10.28125 5.578125,10.28125 L10.75,10.28125 Z" id="chat" fill="currentColor" fill-rule="nonzero"></path>
    </g>
</svg>
