<?xml version="1.0" encoding="UTF-8"?>
<svg width="7px" height="12px" viewBox="0 0 7 12" version="1.1" xmlns="http://www.w3.org/2000/svg" xmlns:xlink="http://www.w3.org/1999/xlink">
    <title>chevronRight</title>
    <g id="design" stroke="none" stroke-width="1" fill="none" fill-rule="evenodd">
        <path d="M0.788840597,11.7235171 C0.992562439,11.7235171 1.17081905,11.6471214 1.31724412,11.5070626 L6.27023139,6.65593628 C6.448488,6.49041228 6.53125,6.29942305 6.53125,6.07660229 C6.52488369,5.85378153 6.44212169,5.6627923 6.27023139,5.490902 L1.31724412,0.646141956 C1.17081905,0.50608319 0.998928746,0.4296875 0.788840597,0.4296875 C0.362297992,0.4296875 0.03125,0.760735492 0.03125,1.1872781 C0.03125,1.39099994 0.114011998,1.58198917 0.260437071,1.72841424 L4.71685235,6.07660229 L0.260437071,10.4247903 C0.114011998,10.5712154 0.03125,10.7558383 0.03125,10.9659265 C0.03125,11.3924691 0.362297992,11.7235171 0.788840597,11.7235171 Z" id="chevronRight" fill="#616161" fill-rule="nonzero"></path>
    </g>
</svg>