<?xml version="1.0" encoding="UTF-8"?>
<svg width="17px" height="18px" viewBox="0 0 17 18" version="1.1" xmlns="http://www.w3.org/2000/svg" xmlns:xlink="http://www.w3.org/1999/xlink">
    <title>logOut</title>
    <g id="design" stroke="none" stroke-width="1" fill="none" fill-rule="evenodd">
        <path d="M8.3671875,9.28125 C8.7421875,9.28125 9,9.0078125 9,8.6171875 L9,1.6015625 C9,1.203125 8.7421875,0.9375 8.3671875,0.9375 C7.9921875,0.9375 7.7421875,1.203125 7.7421875,1.6015625 L7.7421875,8.6171875 C7.7421875,9.0078125 7.9921875,9.28125 8.3671875,9.28125 Z M8.3671875,17.328125 C12.7265625,17.328125 16.3359375,13.7109375 16.3359375,9.359375 C16.3359375,6.9609375 15.2421875,4.8828125 13.7421875,3.515625 C13.0546875,2.890625 12.171875,3.8203125 12.8515625,4.46875 C14.1796875,5.6796875 15,7.4140625 15.0078125,9.359375 C15.015625,13.046875 12.0546875,16 8.3671875,16 C4.6796875,16 1.734375,13.046875 1.734375,9.359375 C1.7421875,7.3984375 2.5625,5.671875 3.8828125,4.4609375 C4.5703125,3.8046875 3.6796875,2.8828125 2.9921875,3.5078125 C1.484375,4.875 0.3984375,6.9609375 0.3984375,9.359375 C0.3984375,13.7109375 4.015625,17.328125 8.3671875,17.328125 Z" id="logOut" fill="currentColor" fill-rule="nonzero"></path>
    </g>
</svg>
