<?xml version="1.0" encoding="UTF-8"?>
<svg width="11px" height="14px" viewBox="0 0 11 14" version="1.1" xmlns="http://www.w3.org/2000/svg" xmlns:xlink="http://www.w3.org/1999/xlink">
    <title>security</title>
    <g id="design" stroke="none" stroke-width="1" fill="none" fill-rule="evenodd">
        <g id="security" transform="translate(0.837891, 0.201172)" fill="currentColor" fill-rule="nonzero">
            <path d="M1.53125,13.4052734 L7.79296875,13.4052734 C8.81835938,13.4052734 9.32421875,12.8925781 9.32421875,11.7783203 L9.32421875,7.06835938 C9.32421875,6.09765625 8.93457031,5.58496094 8.14160156,5.47558594 L8.14160156,3.82128906 C8.14160156,1.24414062 6.453125,0 4.66210938,0 C2.87109375,0 1.18261719,1.24414062 1.18261719,3.82128906 L1.18261719,5.47558594 C0.389648438,5.58496094 0,6.09765625 0,7.06835938 L0,11.7783203 C0,12.8925781 0.505859375,13.4052734 1.53125,13.4052734 Z M2.28320312,3.67773438 C2.28320312,1.96191406 3.38378906,1.05273438 4.66210938,1.05273438 C5.94042969,1.05273438 7.04101562,1.96191406 7.04101562,3.67773438 L7.04101562,5.45507812 L2.28320312,5.45507812 L2.28320312,3.67773438 Z M1.57226562,12.3798828 C1.2578125,12.3798828 1.10058594,12.2363281 1.10058594,11.8535156 L1.10058594,7 C1.10058594,6.6171875 1.2578125,6.48046875 1.57226562,6.48046875 L7.75878906,6.48046875 C8.07324219,6.48046875 8.22363281,6.6171875 8.22363281,7 L8.22363281,11.8535156 C8.22363281,12.2363281 8.07324219,12.3798828 7.75878906,12.3798828 L1.57226562,12.3798828 Z" id="􀎠"></path>
        </g>
    </g>
</svg>
