<?xml version="1.0" encoding="UTF-8"?>
<svg width="18px" height="18px" viewBox="0 0 18 18" version="1.1" xmlns="http://www.w3.org/2000/svg" xmlns:xlink="http://www.w3.org/1999/xlink">
    <title>send</title>
    <g id="design" stroke="none" stroke-width="1" fill="none" fill-rule="evenodd">
        <g id="send" transform="translate(0.420011, 0.412476)" fill="#32C5FF" fill-rule="nonzero">
            <path d="M9.93029785,16.697998 C10.2446696,16.697998 10.5125326,16.5842082 10.7338867,16.3566284 C10.9552409,16.1290487 11.1388346,15.8268636 11.284668,15.4500732 L16.4664307,1.88049316 C16.5308024,1.70910645 16.5808716,1.54848226 16.6166382,1.39862061 C16.6524048,1.24875895 16.6702881,1.10884603 16.6702881,0.978881836 C16.6702881,0.678100586 16.5832926,0.439758301 16.4093018,0.26385498 C16.2353109,0.0879516602 16,0 15.7033691,0 C15.5748698,0 15.4344889,0.0172526042 15.2822266,0.0517578125 C15.1299642,0.0862630208 14.9685059,0.135538737 14.7978516,0.199584961 L1.19885254,5.41101074 C0.854125977,5.54146322 0.568135579,5.71828206 0.340881348,5.94146729 C0.113627116,6.16465251 0,6.43509928 0,6.75280762 C0,7.13765462 0.126546224,7.42364502 0.379638672,7.61077881 C0.63273112,7.7979126 0.954223633,7.9514974 1.34411621,8.0715332 L5.26721191,9.26525879 C5.55692546,9.35795085 5.80074056,9.3947347 5.99865723,9.37561035 C6.19657389,9.356486 6.4005127,9.25056966 6.61047363,9.05786133 L15.3994141,0.946166992 C15.4545898,0.893758138 15.5136515,0.868408203 15.5765991,0.870117188 C15.6395467,0.871826172 15.6935221,0.89457194 15.7385254,0.938354492 C15.7818197,0.980265299 15.8043009,1.03395589 15.8059692,1.09942627 C15.8076375,1.16489665 15.7816976,1.22562663 15.7281494,1.28161621 L7.64978027,10.0964355 C7.47058105,10.2943522 7.36808268,10.4996338 7.34228516,10.7122803 C7.31648763,10.9249268 7.3458252,11.1751302 7.43029785,11.4628906 L8.61047363,15.2980957 C8.73002116,15.6996257 8.88336182,16.0333252 9.07049561,16.2991943 C9.25762939,16.5650635 9.54423014,16.697998 9.93029785,16.697998 Z" id="Path"></path>
        </g>
    </g>
</svg>