<?xml version="1.0" encoding="UTF-8"?>
<svg width="16px" height="19px" viewBox="0 0 16 19" version="1.1" xmlns="http://www.w3.org/2000/svg" xmlns:xlink="http://www.w3.org/1999/xlink">
    <title>trash</title>
    <g id="design" stroke="none" stroke-width="1" fill="none" fill-rule="evenodd">
        <g id="trash" transform="translate(0.346380, 0.609375)" fill="currentColor" fill-rule="nonzero">
            <path d="M4.11743164,17.678833 L11.5023193,17.678833 C12.0695394,17.678833 12.5094401,17.5322266 12.8220215,17.2390137 C13.1346029,16.9458008 13.3037923,16.5169271 13.3295898,15.9523926 L13.8221436,4.75976562 L14.8475342,4.75976562 C15.0653076,4.75976562 15.2484538,4.68522135 15.3969727,4.53613281 C15.5454915,4.38704427 15.619751,4.20076497 15.619751,3.97729492 C15.619751,3.75569661 15.5454915,3.57165527 15.3969727,3.4251709 C15.2484538,3.27868652 15.0653076,3.20544434 14.8475342,3.20544434 L0.772216797,3.20544434 C0.558024089,3.20544434 0.375773112,3.27954102 0.225463867,3.42773438 C0.0751546224,3.57592773 0,3.75911458 0,3.97729492 C0,4.20076497 0.0751546224,4.38704427 0.225463867,4.53613281 C0.375773112,4.68522135 0.558024089,4.75976562 0.772216797,4.75976562 L1.80285645,4.75976562 L2.29541016,15.9523926 C2.31958008,16.5169271 2.48838298,16.9458008 2.80181885,17.2390137 C3.11525472,17.5322266 3.55379232,17.678833 4.11743164,17.678833 Z M5.28747559,15.1601562 C5.12202962,15.1601562 4.98545329,15.109375 4.87774658,15.0078125 C4.77003988,14.90625 4.71618652,14.7705892 4.71618652,14.6008301 L4.47644043,6.46203613 C4.47481283,6.29382324 4.52530924,6.15763346 4.62792969,6.0534668 C4.73055013,5.94930013 4.86979167,5.8972168 5.0456543,5.8972168 C5.2125651,5.8972168 5.34987386,5.94846598 5.45758057,6.05096436 C5.56528727,6.15346273 5.62174479,6.28788249 5.62695312,6.45422363 L5.85888672,14.5926514 C5.86409505,14.7608643 5.81496175,14.8975016 5.71148682,15.0025635 C5.60801188,15.1076253 5.4666748,15.1601562 5.28747559,15.1601562 Z M7.8137207,15.1601562 C7.63785807,15.1601562 7.49601237,15.1089884 7.38818359,15.0066528 C7.28035482,14.9043172 7.22644043,14.7699382 7.22644043,14.6035156 L7.22644043,6.45666504 C7.22644043,6.29024251 7.28035482,6.15539551 7.38818359,6.05212402 C7.49601237,5.94885254 7.63785807,5.8972168 7.8137207,5.8972168 C7.98445638,5.8972168 8.12373861,5.94885254 8.23156738,6.05212402 C8.33939616,6.15539551 8.39331055,6.29024251 8.39331055,6.45666504 L8.39331055,14.6035156 C8.39331055,14.7699382 8.33939616,14.9043172 8.23156738,15.0066528 C8.12373861,15.1089884 7.98445638,15.1601562 7.8137207,15.1601562 Z M10.3321533,15.1601562 C10.1546631,15.1601562 10.0137736,15.1076253 9.90948486,15.0025635 C9.80519613,14.8975016 9.75565592,14.7608643 9.76086426,14.5926514 L9.99279785,6.45935059 C9.99800618,6.28959147 10.0544637,6.15346273 10.1621704,6.05096436 C10.2698771,5.94846598 10.4071859,5.8972168 10.5740967,5.8972168 C10.7499593,5.8972168 10.8892008,5.94930013 10.9918213,6.0534668 C11.0944417,6.15763346 11.1448975,6.29382324 11.1431885,6.46203613 L10.9060059,14.6008301 C10.9043783,14.7705892 10.8497111,14.90625 10.7420044,15.0078125 C10.6342977,15.109375 10.4976807,15.1601562 10.3321533,15.1601562 Z M4.08947754,3.50744629 L5.84887695,3.50744629 L5.84887695,2.12109375 C5.84887695,1.96142578 5.90102132,1.83447266 6.00531006,1.74023438 C6.1095988,1.64599609 6.25362142,1.59887695 6.43737793,1.59887695 L9.17712402,1.59887695 C9.36079915,1.59887695 9.50478109,1.64599609 9.60906982,1.74023438 C9.71335856,1.83447266 9.76550293,1.96142578 9.76550293,2.12109375 L9.76550293,3.50744629 L11.5196533,3.50744629 L11.5196533,2.05395508 C11.5196533,1.40527344 11.3237508,0.900777181 10.9319458,0.540466309 C10.5401408,0.180155436 9.99198405,0 9.28747559,0 L6.3215332,0 C5.61710612,0 5.06899007,0.180155436 4.67718506,0.540466309 C4.28538005,0.900777181 4.08947754,1.40527344 4.08947754,2.05395508 L4.08947754,3.50744629 Z" id="Shape"></path>
        </g>
    </g>
</svg>
