<?xml version="1.0" encoding="UTF-8"?>
<svg width="20px" height="18px" viewBox="0 0 20 18" version="1.1" xmlns="http://www.w3.org/2000/svg" xmlns:xlink="http://www.w3.org/1999/xlink">
    <title>wallet</title>
    <g id="design" stroke="none" stroke-width="1" fill="none" fill-rule="evenodd">
        <g id="wallet" fill="#B620E0" fill-rule="nonzero">
            <path d="M18.015625,3.79591837 L3.125,3.79591837 C2.7796875,3.79591837 2.5,3.51280612 2.5,3.16326531 C2.5,2.81372449 2.7796875,2.53061224 3.125,2.53061224 L18.125,2.53061224 C18.4703125,2.53061224 18.75,2.2475 18.75,1.89795918 C18.75,0.849732143 17.9105469,0 16.875,0 L2.5,0 C1.11914062,0 0,1.13284439 0,2.53061224 L0,15.1836735 C0,16.5814413 1.11914062,17.7142857 2.5,17.7142857 L18.015625,17.7142857 C19.1101562,17.7142857 20,16.8629719 20,15.8163265 L20,5.69387755 C20,4.64723214 19.1101563,3.79591837 18.015625,3.79591837 Z M16.25,12.0204082 C15.5597656,12.0204082 15,11.4537883 15,10.755102 C15,10.0564158 15.5597656,9.48979592 16.25,9.48979592 C16.9402344,9.48979592 17.5,10.0564158 17.5,10.755102 C17.5,11.4537883 16.9402344,12.0204082 16.25,12.0204082 Z" id="Shape"></path>
        </g>
    </g>
</svg>