<?xml version="1.0" encoding="UTF-8"?>
<svg width="69px" height="69px" viewBox="0 0 69 69" version="1.1" xmlns="http://www.w3.org/2000/svg" xmlns:xlink="http://www.w3.org/1999/xlink">
    <title>walletconnect-circle-blue</title>
    <defs>
        <radialGradient cx="0%" cy="50%" fx="0%" fy="50%" r="100%" id="radialGradient-1">
            <stop stop-color="#5D9DF6" offset="0%"></stop>
            <stop stop-color="#006FFF" offset="100%"></stop>
        </radialGradient>
    </defs>
    <g id="design" stroke="none" stroke-width="1" fill="none" fill-rule="evenodd">
        <g id="walletconnect-circle-blue" fill-rule="nonzero">
            <rect id="base" fill="url(#radialGradient-1)" x="0" y="0" width="69" height="69" rx="34.5"></rect>
            <path d="M22.1888298,24.6891809 C28.71197,18.4369397 39.2880696,18.4369397 45.8112095,24.6891809 L46.59628,25.4416481 C46.922437,25.7542602 46.922437,26.2611045 46.59628,26.5737167 L43.9107107,29.1477572 C43.7476322,29.3040633 43.4832296,29.3040633 43.3201511,29.1477572 L42.239801,28.1122728 C37.6890955,23.750553 30.310944,23.750553 25.7602384,28.1122728 L24.6032727,29.2211911 C24.4401941,29.3774972 24.1757916,29.3774972 24.0127132,29.2211911 L21.3271439,26.6471506 C21.0009869,26.3345384 21.0009869,25.8276941 21.3271439,25.5150821 L22.1888298,24.6891809 Z M51.3652204,30.0125689 L53.7553822,32.3034779 C54.0815376,32.6160885 54.0815395,33.1229297 53.7553864,33.4355424 L42.9779815,43.7655352 C42.6518268,44.0781496 42.1230219,44.0781531 41.7968626,43.7655433 C41.7968612,43.765542 41.7968597,43.7655405 41.7968583,43.7655392 L34.1477121,36.4340425 C34.0661729,36.3558895 33.9339715,36.3558895 33.8524324,36.4340425 C33.8524318,36.4340431 33.8524314,36.4340436 33.8524309,36.434044 L26.2034475,43.7655352 C25.8772937,44.0781504 25.3484887,44.0781556 25.0223284,43.7655466 C25.0223265,43.7655448 25.0223244,43.7655429 25.0223224,43.7655409 L14.2446177,33.4354108 C13.9184608,33.1227987 13.9184608,32.6159544 14.2446177,32.3033424 L16.6347838,30.0124372 C16.9609407,29.6998252 17.4897458,29.6998252 17.8159028,30.0124372 L25.4651604,37.3440364 C25.5466997,37.4221894 25.6789007,37.4221894 25.7604401,37.3440364 C25.7604413,37.3440352 25.7604424,37.3440341 25.7604436,37.3440332 L33.4093179,30.0124372 C33.7354674,29.699818 34.2642724,29.6998063 34.5904369,30.0124111 C34.5904414,30.0124155 34.5904459,30.0124199 34.5904504,30.0124243 L42.2396979,37.3440332 C42.3212371,37.422186 42.4534385,37.422186 42.5349776,37.3440332 L50.1841015,30.0125689 C50.5102585,29.6999567 51.0390634,29.6999567 51.3652204,30.0125689 Z" id="WalletConnect" fill="#FFFFFF"></path>
        </g>
    </g>
</svg>